<?xml version="1.0" standalone="no"?>
<!DOCTYPE svg PUBLIC "-//W3C//DTD SVG 20010904//EN"
 "http://www.w3.org/TR/2001/REC-SVG-20010904/DTD/svg10.dtd">
<svg version="1.0" xmlns="http://www.w3.org/2000/svg"
 width="3001.000000pt" height="3001.000000pt" viewBox="0 0 3001.000000 3001.000000"
 preserveAspectRatio="xMidYMid meet">
<metadata>
Created by potrace 1.11, written by Peter Selinger 2001-2013
</metadata>
<g transform="translate(0.000000,3001.000000) scale(0.100000,-0.100000)"
fill="#000000" stroke="none">
<path d="M17354 29912 c-28 -48 -77 -132 -109 -187 -32 -55 -66 -113 -75 -130
-116 -203 -832 -1396 -915 -1525 -12 -19 -87 -138 -165 -265 -78 -126 -161
-259 -185 -295 -23 -36 -70 -110 -104 -165 -62 -98 -161 -256 -181 -285 -5 -8
-92 -141 -192 -295 -276 -424 -807 -1211 -927 -1371 -9 -12 -22 -30 -29 -40
-138 -203 -699 -958 -849 -1144 -6 -8 -69 -87 -139 -175 -106 -133 -359 -440
-430 -521 -11 -12 -39 -45 -63 -74 -25 -29 -50 -58 -55 -64 -6 -6 -45 -49 -86
-96 -183 -208 -277 -307 -525 -555 -206 -206 -311 -305 -455 -431 -25 -21 -51
-45 -59 -52 -8 -8 -88 -73 -178 -145 -162 -129 -167 -134 -287 -297 -173 -234
-197 -268 -369 -525 -137 -206 -194 -295 -281 -445 -85 -146 -191 -376 -246
-535 l-21 -60 -152 -43 c-140 -39 -348 -98 -557 -158 -116 -33 -192 -55 -210
-60 -8 -2 -46 -13 -85 -24 -38 -12 -77 -23 -85 -25 -66 -19 -98 -27 -117 -32
-15 -3 -23 -13 -24 -27 0 -11 -2 -30 -4 -41 -2 -11 -8 -56 -14 -100 -14 -96
-17 -118 -37 -210 -9 -38 -18 -83 -21 -100 -3 -16 -24 -98 -48 -181 -82 -284
-196 -539 -340 -756 -47 -69 -90 -132 -97 -140 -7 -7 -38 -42 -68 -78 -226
-264 -567 -496 -905 -615 -27 -9 -59 -21 -70 -25 -71 -29 -343 -98 -454 -115
-24 -3 -24 -21 0 -92 106 -325 249 -563 469 -783 215 -216 491 -386 815 -502
106 -39 307 -98 332 -98 12 0 19 15 27 60 33 190 147 476 253 639 138 210 336
387 538 480 43 20 173 61 240 76 103 23 517 164 728 247 244 97 581 270 682
350 6 5 39 27 75 51 36 23 67 45 70 48 3 3 10 8 15 10 6 2 197 128 425 280
228 151 421 279 428 283 14 8 13 -11 -2 -74 -3 -14 -8 -36 -10 -50 -2 -14 -7
-36 -10 -50 -3 -14 -8 -36 -10 -50 -3 -14 -18 -92 -35 -175 -16 -82 -32 -163
-35 -179 -3 -16 -10 -52 -16 -80 -6 -28 -12 -62 -15 -76 -4 -23 -29 -143 -40
-200 -3 -14 -12 -59 -20 -100 -8 -41 -17 -85 -20 -98 -2 -13 -6 -31 -9 -40 -3
-9 -7 -33 -10 -52 -3 -19 -12 -68 -20 -107 -9 -40 -18 -85 -21 -100 -2 -16
-18 -95 -35 -177 -16 -82 -30 -150 -30 -151 0 -2 -33 -22 -72 -46 -40 -23 -74
-46 -76 -51 -2 -4 -8 -8 -13 -8 -13 0 -205 -131 -344 -235 -173 -128 -289
-228 -435 -374 -240 -240 -399 -481 -473 -718 -33 -104 -38 -130 -51 -303 -31
-385 -247 -701 -619 -905 -77 -42 -272 -125 -293 -125 -58 0 90 -159 212 -227
128 -72 281 -102 489 -97 168 3 187 6 375 45 145 30 429 114 431 127 1 4 3 25
4 47 3 54 16 169 20 175 2 3 6 26 10 50 19 133 106 384 185 535 158 301 411
607 690 835 30 25 61 51 69 58 28 26 199 151 286 209 387 257 862 476 1332
617 149 45 416 112 518 130 17 3 41 8 55 11 80 16 160 28 295 45 50 6 104 13
120 15 139 19 602 27 760 13 151 -14 248 -26 275 -33 8 -3 31 -7 50 -9 19 -3
76 -14 125 -25 340 -77 617 -222 1002 -524 25 -20 29 -17 13 11 -34 59 -173
456 -196 557 -1 6 -9 38 -18 72 -23 88 -54 243 -61 304 -4 29 -8 56 -10 59 -6
10 -18 186 -18 290 -1 105 8 252 19 300 3 14 7 36 9 50 30 180 110 375 208
510 170 232 420 361 702 362 548 2 1249 -412 1994 -1176 198 -204 362 -387
521 -585 19 -24 40 -48 46 -55 19 -20 218 -279 293 -381 41 -55 86 -116 100
-135 107 -143 369 -544 508 -775 121 -201 146 -245 211 -365 19 -36 49 -92 67
-125 66 -124 215 -427 215 -440 0 -2 13 -32 30 -67 16 -35 43 -99 60 -143 17
-44 35 -89 40 -100 6 -11 30 -81 55 -155 l46 -135 -6 285 c-4 278 -8 361 -20
505 -12 150 -16 192 -20 235 -3 25 -7 68 -10 95 -2 28 -7 67 -10 88 -9 63 -14
100 -20 152 -3 28 -10 75 -15 105 -5 30 -12 73 -15 95 -3 22 -10 65 -15 95
-13 70 -19 104 -24 135 -3 14 -7 33 -10 43 -3 9 -7 33 -10 52 -9 55 -16 92
-26 130 -5 19 -12 47 -15 63 -3 15 -8 39 -11 55 -57 283 -261 948 -383 1249
-10 27 -38 95 -61 153 -148 370 -345 774 -572 1175 -50 88 -105 183 -123 210
-17 28 -53 86 -80 130 -27 44 -75 120 -107 168 -32 48 -58 92 -58 96 0 5 -3
11 -7 13 -5 2 -46 59 -93 128 -114 169 -214 307 -345 479 -60 79 -119 156
-130 170 -49 66 -329 404 -410 495 -5 6 -46 51 -90 100 -44 49 -70 84 -58 78
57 -31 464 -331 678 -501 106 -84 411 -337 441 -365 6 -6 41 -38 78 -70 283
-249 766 -727 945 -935 11 -12 49 -55 84 -95 70 -77 224 -259 272 -320 17 -21
40 -50 53 -65 12 -14 42 -51 65 -81 23 -30 45 -57 48 -60 12 -11 220 -292 311
-420 191 -271 459 -691 557 -875 12 -22 26 -47 31 -55 69 -103 342 -653 457
-920 24 -58 51 -118 58 -135 95 -215 321 -852 360 -1015 2 -8 13 -46 25 -85
17 -59 95 -356 105 -405 2 -8 12 -53 23 -100 27 -112 82 -395 102 -520 6 -36
13 -76 15 -90 9 -54 14 -87 19 -130 3 -25 8 -54 10 -65 2 -11 7 -49 11 -85 4
-36 9 -74 11 -85 2 -11 6 -54 10 -95 3 -41 7 -86 9 -100 4 -26 14 -139 20
-225 27 -378 27 -1045 0 -1370 -2 -27 -7 -81 -10 -120 -6 -77 -14 -161 -20
-215 -3 -19 -7 -57 -10 -85 -11 -93 -15 -120 -30 -230 -9 -60 -18 -126 -21
-145 -10 -70 -26 -158 -60 -340 -20 -102 -38 -196 -40 -210 -3 -14 -23 -99
-45 -190 -39 -160 -43 -178 -54 -229 -2 -13 -7 -26 -10 -29 -6 -6 0 42 15 123
5 28 12 73 16 100 3 28 7 57 9 65 1 8 6 44 10 80 4 36 9 73 11 83 1 9 6 56 9
105 4 48 8 97 10 108 23 143 23 850 0 1044 -2 19 -7 69 -10 110 -6 78 -12 143
-20 195 -2 17 -7 53 -10 80 -5 45 -9 75 -20 140 -2 11 -11 65 -21 120 -9 55
-29 163 -46 240 -16 77 -31 151 -34 165 -2 14 -8 36 -13 50 -5 14 -15 52 -22
85 -7 33 -19 75 -26 93 -7 17 -11 32 -9 32 3 0 -4 26 -15 57 -11 32 -21 66
-23 78 -7 37 -68 218 -128 383 -161 442 -388 904 -646 1312 -47 74 -93 144
-103 155 -21 21 -21 26 9 -65 3 -8 6 -19 7 -25 2 -5 12 -41 23 -80 61 -206
147 -571 201 -855 38 -198 40 -207 46 -255 3 -22 8 -53 11 -69 3 -15 8 -45 10
-65 1 -20 5 -45 7 -56 3 -11 8 -45 12 -75 3 -30 8 -66 10 -80 2 -14 7 -54 10
-90 4 -36 8 -72 10 -80 2 -8 6 -53 10 -100 3 -47 8 -101 10 -120 27 -278 27
-1071 0 -1300 -2 -19 -7 -66 -10 -105 -4 -38 -8 -81 -10 -95 -3 -22 -14 -119
-20 -175 -1 -17 -9 -71 -20 -140 -2 -11 -6 -36 -10 -55 -3 -19 -8 -46 -9 -60
-9 -74 -61 -329 -97 -480 -17 -69 -32 -133 -34 -143 -35 -162 -184 -614 -290
-877 -99 -246 -112 -274 -225 -505 -301 -612 -654 -1134 -1149 -1700 -123
-139 -513 -533 -651 -656 -52 -46 -100 -88 -106 -94 -66 -60 -307 -259 -389
-323 -5 -4 -48 -37 -95 -73 -256 -198 -649 -464 -945 -639 -49 -29 -101 -60
-115 -69 -14 -9 -45 -26 -70 -39 -25 -13 -56 -31 -70 -40 -25 -16 -52 -31
-225 -124 -137 -74 -511 -257 -685 -336 -230 -103 -358 -156 -655 -272 -11 -4
-31 -12 -45 -18 -156 -64 -713 -251 -959 -322 -96 -27 -176 -52 -178 -54 -3
-3 26 -3 64 -1 37 2 124 7 193 10 69 3 141 8 160 10 19 1 82 6 140 10 58 3
119 8 135 10 33 4 115 12 210 20 33 3 76 7 95 10 19 3 58 7 85 10 98 11 263
33 305 40 14 2 45 7 70 10 25 3 70 10 100 15 30 5 71 12 90 15 19 3 46 7 60
10 14 3 39 7 55 9 33 5 193 33 240 42 17 3 107 21 200 40 94 20 181 37 195 40
14 3 52 11 85 20 33 8 70 16 83 19 13 2 31 6 40 9 9 3 28 7 42 10 14 3 52 13
85 22 33 9 67 17 75 19 44 9 117 28 215 55 61 17 119 33 130 35 11 3 65 19
120 35 55 17 110 33 122 35 41 9 590 193 738 248 183 67 475 181 532 208 24
10 45 19 48 19 2 0 30 12 62 26 32 14 73 32 91 40 17 8 47 20 65 28 17 8 52
23 77 34 258 111 1018 498 1160 590 14 9 27 17 30 17 3 0 28 14 55 31 28 17
91 54 140 84 135 79 217 130 395 245 58 38 130 84 160 103 l55 34 -65 -68
c-185 -194 -500 -500 -620 -604 -14 -12 -39 -34 -56 -50 -179 -162 -609 -495
-874 -676 -177 -121 -461 -302 -565 -360 -11 -6 -38 -21 -60 -34 -44 -25 -108
-61 -170 -95 -70 -40 -548 -280 -610 -307 -33 -15 -91 -41 -130 -58 -295 -131
-701 -282 -1040 -385 -115 -35 -394 -114 -425 -120 -8 -2 -35 -8 -60 -15 -46
-12 -65 -17 -110 -26 -13 -3 -61 -14 -106 -24 -45 -11 -95 -22 -111 -25 -15
-2 -39 -7 -53 -10 -14 -3 -59 -12 -100 -20 -41 -8 -87 -17 -103 -20 -15 -2
-54 -9 -87 -15 -33 -6 -72 -13 -87 -15 -16 -3 -48 -8 -73 -11 -25 -3 -52 -7
-60 -9 -8 -2 -53 -9 -100 -15 -47 -6 -101 -12 -120 -15 -100 -13 -247 -28
-395 -40 -38 -3 -92 -8 -120 -10 -269 -24 -1025 -25 -1290 0 -51 4 -188 16
-240 19 -51 4 -162 16 -197 22 -15 2 -47 6 -72 9 -68 7 -139 16 -156 20 -8 2
-39 7 -69 10 -30 4 -63 9 -75 11 -11 2 -38 6 -61 9 -22 3 -78 13 -125 22 -110
20 -116 21 -176 33 -28 6 -64 13 -80 16 -50 8 -469 106 -477 111 -4 2 -17 6
-30 8 -45 9 -377 107 -542 161 -238 78 -637 230 -805 307 -25 11 -92 41 -150
67 -208 94 -696 342 -720 367 -5 5 101 -6 111 -12 3 -2 61 -13 130 -25 68 -11
135 -23 149 -25 22 -4 75 -11 225 -31 22 -3 51 -7 65 -9 14 -2 59 -6 100 -10
41 -3 82 -8 90 -10 8 -2 56 -6 105 -10 50 -3 106 -8 125 -10 239 -26 1018 -26
1315 0 28 2 86 7 130 10 44 4 91 8 105 11 14 2 55 6 90 9 36 3 76 7 90 10 14
2 50 6 80 10 30 3 66 8 80 10 33 6 75 12 130 20 192 26 443 75 764 150 183 42
522 141 736 213 263 89 305 105 314 113 6 5 16 9 23 9 14 0 307 119 470 191
183 82 565 271 558 277 -2 2 -43 -3 -92 -12 -48 -8 -110 -18 -138 -21 -27 -4
-57 -8 -65 -10 -8 -2 -37 -7 -65 -10 -27 -4 -61 -8 -75 -11 -14 -2 -50 -7 -80
-10 -30 -3 -66 -7 -80 -9 -38 -6 -99 -12 -290 -31 -30 -3 -68 -7 -85 -9 -16
-2 -75 -7 -130 -11 -55 -3 -120 -8 -145 -10 -364 -25 -1214 -24 -1490 1 -59 5
-168 14 -255 20 -38 3 -90 8 -115 10 -25 3 -67 7 -95 10 -132 12 -449 53 -545
71 -14 2 -68 11 -120 19 -52 8 -105 17 -116 19 -20 4 -35 7 -131 22 -21 3 -41
8 -44 10 -4 2 -24 6 -45 10 -66 10 -272 54 -403 85 -68 16 -133 31 -145 33
-55 11 -318 82 -476 127 -540 156 -1168 390 -1660 620 -286 133 -734 365 -915
474 -38 23 -77 45 -85 49 -18 8 -27 14 -160 95 -144 88 -393 248 -500 321
-596 409 -1066 793 -1600 1310 l-85 82 169 -112 c166 -110 453 -290 463 -290
3 0 17 -8 31 -19 15 -10 68 -40 117 -66 50 -27 101 -56 115 -65 25 -17 465
-235 573 -284 266 -120 612 -254 902 -349 209 -68 533 -162 625 -181 14 -3 52
-12 85 -20 88 -22 184 -44 230 -53 49 -9 44 -8 80 -16 17 -4 44 -9 60 -12 17
-3 80 -14 140 -25 153 -28 372 -61 505 -76 25 -2 61 -7 80 -9 19 -2 64 -7 100
-10 36 -3 81 -8 100 -10 19 -2 78 -6 130 -10 52 -3 118 -8 145 -11 28 -2 151
-6 275 -9 200 -4 221 -3 190 10 -19 7 -145 57 -280 110 -221 87 -300 120 -425
175 -22 10 -74 32 -115 50 -147 64 -231 102 -405 185 -60 29 -117 55 -125 58
-23 10 -323 166 -435 227 -163 87 -406 226 -525 300 -8 5 -45 27 -81 49 -165
100 -539 356 -723 494 -137 103 -414 324 -446 357 -3 3 -25 23 -50 44 -278
241 -606 573 -820 831 -41 50 -77 92 -80 95 -55 51 -429 576 -496 695 -6 11
-38 65 -71 120 -111 185 -262 479 -343 665 -18 41 -38 89 -45 105 -100 225
-275 753 -320 965 -2 8 -14 65 -28 125 -22 94 -43 194 -62 295 -3 13 -7 40
-10 60 -3 20 -7 45 -9 55 -2 11 -9 56 -16 100 -6 44 -13 91 -15 105 -6 40 -14
101 -20 160 -3 30 -8 71 -10 90 -2 19 -7 69 -10 110 -3 41 -8 91 -10 110 -24
202 -24 848 0 1195 5 80 16 221 20 255 2 19 6 64 10 100 7 73 12 117 19 175 3
22 8 60 11 85 3 25 8 65 11 90 3 25 7 56 9 70 3 14 7 43 11 65 3 22 12 78 19
125 8 47 17 103 21 125 47 313 206 997 324 1400 23 77 47 160 55 185 7 25 32
104 54 175 23 72 43 135 45 140 21 73 142 426 186 545 17 47 38 103 45 125 15
45 81 219 94 250 5 11 42 103 82 205 68 174 134 337 164 405 7 17 60 138 118
270 57 132 138 312 179 400 41 88 97 207 124 265 95 206 480 965 587 1159 l30
54 -29 -22 c-139 -109 -687 -655 -889 -886 -33 -37 -66 -74 -72 -81 -33 -33
-219 -254 -308 -364 -55 -69 -103 -127 -106 -130 -8 -7 -297 -395 -342 -460
-180 -256 -370 -553 -531 -827 -58 -100 -106 -184 -106 -188 0 -3 -10 -22 -23
-43 -13 -20 -54 -95 -92 -166 -352 -670 -641 -1382 -848 -2091 -39 -133 -134
-486 -141 -525 -2 -14 -13 -63 -25 -110 -11 -47 -27 -119 -36 -160 -27 -128
-56 -274 -60 -295 -1 -11 -10 -63 -19 -115 -22 -123 -25 -140 -31 -170 -2 -14
-14 -92 -25 -175 -12 -82 -23 -161 -25 -175 -2 -14 -7 -50 -10 -80 -3 -30 -7
-66 -10 -80 -2 -14 -7 -56 -10 -95 -3 -38 -8 -81 -10 -95 -5 -32 -13 -133 -20
-235 -3 -44 -7 -100 -10 -125 -27 -278 -27 -1216 0 -1525 2 -27 7 -91 10 -142
3 -50 8 -113 10 -140 9 -89 16 -158 20 -193 3 -19 7 -57 10 -85 7 -58 24 -196
30 -240 28 -198 37 -257 45 -300 5 -27 12 -66 15 -85 5 -34 22 -126 30 -172 5
-25 64 -321 70 -351 2 -10 6 -26 9 -35 3 -9 7 -28 10 -42 10 -52 55 -238 75
-315 12 -44 24 -89 26 -100 26 -119 229 -768 291 -930 12 -33 50 -134 85 -225
34 -91 70 -183 79 -205 10 -22 41 -96 70 -165 76 -182 186 -420 285 -620 77
-154 116 -229 248 -470 52 -97 209 -363 249 -423 21 -32 38 -61 38 -63 0 -3 8
-17 19 -32 10 -15 76 -115 147 -222 70 -107 132 -199 137 -205 16 -19 172
-237 182 -254 6 -10 23 -33 38 -52 15 -19 80 -101 144 -184 106 -137 322 -400
399 -485 17 -19 57 -64 90 -100 32 -36 74 -83 94 -105 53 -61 554 -561 646
-646 44 -40 114 -103 155 -139 41 -36 76 -67 79 -70 3 -3 34 -30 70 -60 36
-30 67 -57 70 -61 3 -3 52 -43 110 -90 58 -46 107 -87 110 -90 22 -27 526
-401 685 -509 97 -65 281 -187 336 -222 217 -138 682 -418 694 -418 3 0 26
-13 52 -29 137 -83 620 -326 848 -426 72 -31 148 -65 170 -75 297 -132 853
-330 1239 -440 151 -43 212 -60 346 -95 120 -31 447 -105 485 -110 11 -2 65
-12 120 -24 55 -11 116 -23 135 -26 19 -3 49 -8 65 -11 17 -3 42 -7 57 -9 15
-2 35 -6 45 -9 10 -2 41 -7 68 -11 28 -3 75 -10 105 -15 30 -5 73 -11 95 -14
58 -8 126 -17 155 -21 14 -2 50 -6 80 -9 30 -3 78 -8 105 -11 28 -3 73 -7 100
-10 28 -2 68 -6 90 -9 22 -2 85 -7 140 -11 55 -3 118 -8 140 -10 265 -24 1047
-24 1345 0 25 2 88 6 140 10 52 4 111 8 130 10 19 2 64 6 100 10 36 3 85 8
110 10 115 13 147 17 170 20 14 2 50 7 80 10 30 3 66 8 80 10 83 13 161 25
200 30 25 3 68 10 95 15 28 5 66 12 85 15 36 6 276 52 320 61 14 3 77 16 140
30 63 14 126 27 140 30 14 3 39 9 56 15 17 5 41 11 53 14 11 2 49 11 84 20 34
9 70 18 80 20 10 2 52 14 95 25 42 12 84 23 94 25 91 19 806 254 893 294 11 5
58 24 105 41 365 136 894 384 1315 615 50 28 99 55 110 62 11 7 27 15 35 19
23 12 202 119 330 198 143 88 404 259 455 299 13 9 26 17 30 17 7 0 0 -211 -9
-275 -42 -305 -160 -642 -351 -1005 -30 -57 -53 -105 -52 -106 7 -7 205 176
317 292 108 112 261 288 352 404 161 208 342 463 483 682 6 8 19 28 29 44 65
97 281 450 332 541 55 100 135 240 144 253 6 8 13 22 17 30 4 8 20 37 35 64
16 26 56 101 90 165 34 64 65 117 70 119 4 2 8 11 8 21 0 9 4 21 9 26 21 21
531 1031 561 1111 6 14 14 23 19 19 6 -3 30 -37 56 -75 100 -150 178 -366 219
-605 14 -84 19 -115 30 -197 8 -54 17 -186 21 -288 2 -52 4 -99 5 -105 2 -25
170 301 278 540 46 102 194 467 212 525 5 14 34 99 65 190 31 91 58 172 60
180 2 8 13 44 25 80 12 36 24 72 26 80 2 8 17 60 34 115 29 92 148 521 155
555 2 8 24 96 50 194 26 99 48 186 50 195 2 9 29 120 60 246 52 214 104 426
251 1027 32 131 61 234 65 230 4 -4 20 -32 37 -62 16 -30 51 -91 77 -135 73
-122 84 -141 145 -260 138 -265 194 -491 186 -749 -2 -97 -1 -107 10 -81 7 17
23 55 37 85 14 30 28 66 32 80 4 14 13 39 20 55 31 70 139 388 170 500 73 261
139 518 159 615 3 14 14 66 25 115 11 50 23 106 26 125 3 19 10 51 15 70 5 19
11 51 14 70 3 19 10 58 15 85 14 67 21 104 26 140 3 17 7 41 10 55 3 14 8 42
11 64 3 21 8 48 10 60 7 32 33 196 39 241 2 22 6 49 9 60 2 11 7 45 11 75 4
30 9 62 10 70 2 8 6 38 9 65 4 28 11 77 16 110 5 33 12 84 15 114 4 30 8 61
10 70 3 16 12 88 21 166 2 22 6 56 9 75 2 19 7 59 11 89 3 30 7 62 9 71 2 9 6
49 10 89 3 40 8 80 10 90 2 9 6 47 9 83 4 37 8 75 10 85 2 10 7 54 11 98 3 44
8 94 10 110 7 56 14 120 20 180 3 33 7 76 10 95 3 19 8 67 11 105 4 39 8 81 9
95 3 31 16 165 21 205 1 17 3 39 4 50 0 18 2 18 20 -5 11 -14 20 -28 20 -32 0
-11 88 -156 168 -277 42 -64 79 -120 81 -126 2 -5 7 -12 10 -15 4 -3 24 -31
45 -63 22 -31 41 -56 43 -54 7 8 16 334 16 607 0 325 -10 652 -27 877 -3 37
-8 104 -11 148 -5 75 -8 99 -20 222 -2 27 -7 75 -10 108 -3 33 -8 76 -10 95
-3 19 -7 53 -10 75 -5 37 -8 60 -20 168 -3 23 -6 51 -9 62 -2 11 -7 47 -11 80
-4 32 -9 68 -11 80 -5 24 -23 135 -29 185 -3 19 -7 46 -10 60 -3 14 -8 39 -11
55 -2 17 -12 66 -20 110 -8 44 -17 91 -19 105 -2 14 -8 45 -14 70 -5 25 -13
61 -16 80 -3 19 -22 105 -41 190 -35 153 -40 176 -48 215 -2 11 -12 49 -21 85
-9 36 -18 72 -20 81 -10 49 -100 375 -152 549 -73 248 -281 851 -314 912 -6
11 -9 22 -6 24 2 2 51 -29 108 -70 57 -41 119 -85 137 -98 18 -13 52 -37 75
-54 148 -108 754 -504 909 -593 18 -10 103 -59 188 -108 365 -211 726 -388
1036 -508 101 -39 336 -120 381 -130 10 -2 61 -16 113 -29 52 -14 97 -23 99
-20 5 5 -10 20 -160 154 -46 41 -118 106 -159 145 -41 38 -80 74 -86 80 -214
192 -842 820 -1056 1056 -13 14 -64 70 -114 125 -475 517 -1022 1197 -1334
1659 -19 28 -38 55 -43 60 -44 52 -378 582 -472 750 -15 28 -41 73 -56 100
-46 79 -232 453 -263 528 -25 60 -39 76 -110 136 -142 118 -352 262 -516 355
-84 47 -481 244 -585 289 -123 54 -555 237 -561 237 -2 0 -23 8 -47 19 -23 10
-80 34 -127 54 -511 212 -895 386 -855 388 86 5 315 20 355 24 19 2 71 7 115
10 44 4 94 9 110 11 17 2 53 6 80 9 28 3 66 7 85 10 19 2 55 7 80 10 45 6 58
8 140 20 72 11 93 14 128 20 17 3 47 7 65 10 17 3 55 10 82 15 28 5 65 12 84
15 19 3 96 19 170 36 75 17 147 32 161 35 14 3 48 12 76 20 28 8 60 16 70 18
50 10 293 85 424 130 376 131 733 303 1059 514 91 58 301 211 301 218 0 3 -28
2 -62 -1 -35 -3 -83 -8 -108 -10 -46 -4 -153 -12 -270 -20 -290 -20 -930 -26
-1190 -12 -255 14 -426 27 -575 42 -27 3 -77 7 -110 11 -33 3 -71 7 -85 9 -14
2 -65 9 -115 15 -49 6 -101 13 -115 15 -25 4 -86 13 -137 20 -15 2 -71 11
-123 20 -52 9 -111 19 -130 22 -60 9 -432 83 -490 98 -30 8 -66 16 -80 18 -72
13 -446 112 -635 168 -394 117 -962 323 -1231 445 -70 32 -216 79 -353 115
-64 17 -123 32 -131 34 -37 10 -358 76 -390 80 -19 3 -46 7 -60 10 -64 12 -79
15 -135 20 -33 3 -73 8 -90 10 -133 20 -302 29 -535 29 -224 1 -376 -8 -530
-30 -25 -3 -58 -8 -73 -10 -45 -5 -101 -14 -127 -19 -14 -3 -38 -8 -55 -11
-70 -12 -207 -45 -303 -72 l-104 -30 44 46 c228 239 482 474 688 638 41 32 79
63 85 67 202 162 548 376 816 505 129 62 347 152 368 152 7 0 10 4 7 9 -17 27
-364 44 -586 28 -122 -9 -135 -11 -300 -33 -19 -3 -60 -10 -90 -15 -30 -6 -68
-12 -85 -14 -54 -8 -337 -73 -475 -110 -175 -46 -488 -141 -545 -165 -11 -4
-63 -22 -115 -40 -151 -50 -531 -191 -595 -220 -11 -5 -110 -46 -220 -91 -110
-45 -306 -129 -435 -187 -129 -57 -249 -111 -267 -118 l-31 -13 41 62 c50 74
72 112 137 240 210 408 288 851 235 1337 -3 30 -8 62 -10 70 -2 8 -6 37 -10
64 -3 27 -8 52 -10 55 -1 3 -6 24 -9 46 -4 22 -14 67 -22 100 -9 33 -17 67
-19 75 -11 50 -46 165 -54 173 -5 5 -11 -8 -16 -30 -9 -50 -93 -319 -145 -463
-102 -283 -252 -600 -400 -845 -82 -137 -241 -369 -295 -432 -5 -6 -21 -26
-35 -44 -137 -182 -431 -480 -635 -645 -33 -27 -65 -53 -71 -59 -38 -35 -206
-155 -331 -237 -205 -135 -311 -196 -548 -312 -201 -99 -350 -166 -368 -166
-7 0 -17 -4 -22 -8 -12 -11 -115 -52 -115 -47 0 3 66 84 138 170 109 128 399
490 544 679 27 33 52 66 57 72 5 6 81 107 168 225 148 198 246 334 382 528 60
85 430 645 475 718 16 27 49 78 73 115 24 37 43 69 43 72 0 3 27 48 60 100 33
53 60 97 60 100 0 2 23 41 50 85 28 44 50 83 50 86 0 2 18 35 41 71 22 37 45
77 50 88 5 12 17 35 27 51 10 17 43 75 72 130 29 55 66 123 81 150 38 68 280
554 318 638 17 37 44 96 60 131 336 730 630 1598 787 2321 9 39 17 77 19 85 4
17 41 202 48 240 3 14 8 43 12 65 4 22 9 49 11 60 15 80 34 208 31 211 -2 2
-26 -36 -53 -84z m-3959 -8094 c-7 -103 -37 -288 -54 -330 -6 -16 -8 -28 -6
-28 10 0 -67 -196 -110 -283 -76 -150 -207 -329 -323 -441 l-40 -39 -294 -58
c-161 -33 -306 -62 -323 -65 -16 -3 -59 -11 -95 -19 -36 -8 -76 -17 -90 -19
-14 -3 -47 -9 -73 -14 l-49 -10 -30 65 c-16 35 -27 70 -25 77 12 31 161 202
271 311 233 231 569 498 959 760 149 101 279 185 285 185 2 0 1 -42 -3 -92z
m-3739 -2998 c54 -39 108 -78 119 -86 11 -8 55 -39 98 -70 70 -50 92 -74 68
-74 -5 0 -47 -17 -93 -39 -45 -21 -131 -60 -190 -86 -62 -27 -108 -53 -108
-61 0 -8 0 -16 0 -19 0 -3 -13 -31 -29 -63 -50 -98 -116 -143 -208 -141 -102
2 -101 -5 -22 164 107 229 119 254 156 335 74 162 98 210 103 210 4 0 51 -32
106 -70z"/>
<path d="M13197 25464 c-1 -1 -90 -4 -197 -8 -219 -8 -272 -10 -415 -21 -55
-3 -124 -8 -153 -10 -29 -2 -69 -6 -90 -9 -20 -3 -73 -8 -117 -11 -44 -3 -91
-8 -105 -10 -14 -2 -54 -6 -90 -10 -36 -4 -76 -8 -90 -10 -14 -2 -50 -7 -80
-10 -90 -11 -122 -15 -149 -20 -14 -2 -46 -7 -71 -10 -25 -3 -74 -11 -110 -16
-36 -6 -78 -12 -95 -15 -16 -2 -41 -6 -55 -9 -13 -2 -40 -7 -60 -10 -20 -3
-47 -7 -60 -10 -14 -3 -41 -8 -60 -11 -29 -5 -237 -44 -305 -58 -234 -48 -557
-123 -680 -157 -38 -11 -80 -22 -92 -25 -35 -7 -297 -82 -438 -126 -307 -94
-596 -195 -905 -315 -240 -94 -438 -177 -615 -258 -33 -15 -109 -50 -170 -78
-135 -62 -570 -282 -720 -364 -724 -399 -1413 -865 -2030 -1375 -96 -79 -222
-185 -230 -194 -5 -5 -44 -39 -85 -75 -113 -96 -263 -235 -423 -389 -279 -268
-569 -572 -773 -809 -16 -19 -38 -43 -49 -55 -43 -45 -286 -340 -408 -497 -71
-90 -134 -171 -140 -179 -87 -109 -462 -648 -573 -823 -278 -443 -479 -800
-693 -1232 -142 -287 -170 -348 -305 -657 -8 -18 -31 -73 -51 -123 -20 -49
-43 -103 -50 -120 -14 -34 -73 -185 -80 -205 -1 -3 -6 -16 -12 -30 -67 -162
-313 -898 -338 -1010 -2 -8 -21 -80 -44 -160 -34 -122 -128 -497 -145 -580 -3
-14 -12 -55 -20 -91 -8 -36 -17 -79 -20 -94 -3 -15 -16 -82 -30 -149 -14 -66
-30 -148 -36 -181 -5 -33 -12 -70 -14 -81 -2 -12 -7 -39 -10 -60 -4 -22 -8
-46 -11 -54 -2 -8 -6 -37 -10 -65 -3 -27 -10 -72 -15 -100 -5 -27 -12 -70 -14
-95 -3 -25 -7 -54 -10 -65 -4 -23 -13 -89 -22 -160 -3 -27 -7 -61 -9 -75 -4
-22 -9 -66 -30 -265 -3 -27 -8 -66 -10 -85 -2 -19 -7 -75 -10 -125 -4 -49 -8
-101 -10 -115 -2 -14 -7 -77 -11 -140 -3 -63 -8 -135 -9 -160 -9 -116 -19
-540 -19 -765 1 -358 19 -747 49 -1085 12 -131 17 -178 20 -205 2 -16 7 -57
10 -90 6 -59 7 -72 20 -170 12 -97 44 -330 50 -365 2 -14 7 -43 10 -65 3 -22
10 -62 15 -90 5 -27 12 -63 15 -80 7 -43 34 -195 41 -230 3 -16 12 -64 21
-105 8 -41 17 -83 19 -93 2 -10 5 -26 8 -35 3 -9 8 -33 11 -52 11 -63 86 -387
115 -495 55 -206 103 -377 126 -455 57 -189 156 -496 165 -515 6 -12 11 -28
13 -38 1 -9 5 -20 9 -23 4 -4 7 -17 7 -29 0 -11 4 -25 8 -30 5 -6 24 -53 42
-105 61 -175 238 -619 330 -824 95 -213 172 -377 292 -614 115 -227 133 -260
226 -427 44 -80 230 -400 267 -461 110 -181 257 -409 266 -412 5 -2 9 -8 9
-14 0 -9 58 -99 70 -108 4 -3 12 -15 19 -28 25 -46 454 -638 481 -662 3 -3 50
-61 105 -130 55 -69 107 -134 116 -145 10 -11 47 -56 84 -100 98 -116 310
-358 409 -465 140 -150 606 -613 752 -745 92 -82 176 -159 188 -170 11 -11 64
-56 116 -100 130 -110 132 -111 160 -135 77 -67 203 -165 211 -165 5 0 44 -26
87 -59 79 -59 61 -41 -74 79 -92 82 -209 192 -318 301 -92 91 -141 143 -276
293 -41 46 -84 93 -95 105 -11 12 -45 50 -75 86 -30 36 -60 70 -66 75 -11 10
-101 116 -145 169 -13 17 -40 48 -60 70 -19 23 -88 106 -153 186 -65 80 -126
154 -136 166 -103 123 -516 676 -646 864 -174 252 -324 482 -324 496 0 3 -16
30 -35 60 -19 30 -35 56 -35 58 0 3 -24 46 -54 98 -143 250 -328 615 -468 923
-122 271 -117 260 -163 375 -21 52 -42 99 -47 105 -4 5 -8 15 -8 22 0 7 -9 32
-19 56 -39 85 -156 408 -237 652 -113 344 -236 783 -304 1085 -12 52 -23 102
-25 110 -2 8 -18 85 -35 170 -17 85 -33 164 -36 175 -7 33 -26 139 -29 160 -1
11 -7 47 -14 80 -6 33 -13 78 -16 100 -4 22 -8 51 -10 65 -2 14 -7 48 -11 75
-3 28 -8 59 -10 69 -4 25 -22 155 -29 221 -3 28 -8 64 -10 80 -2 17 -7 57 -10
90 -4 33 -8 76 -11 95 -5 48 -13 131 -19 215 -3 39 -7 99 -10 135 -21 276 -28
478 -28 835 0 293 8 623 17 735 3 25 7 90 11 145 3 55 8 116 10 135 2 19 7 67
10 105 3 39 8 88 10 110 2 22 7 65 10 95 6 59 34 288 40 330 2 14 7 45 10 70
11 83 24 169 31 205 2 10 6 35 9 55 3 20 10 56 15 81 7 36 8 28 4 -41 -2 -47
-7 -107 -9 -135 -23 -266 -29 -451 -29 -910 -1 -499 8 -749 39 -1075 2 -25 7
-79 11 -120 3 -41 8 -82 9 -90 2 -8 6 -46 9 -85 4 -38 9 -81 11 -95 3 -14 7
-45 9 -70 2 -25 7 -61 10 -80 3 -19 8 -53 11 -75 30 -212 39 -278 50 -335 3
-14 7 -41 10 -60 11 -71 77 -408 95 -485 11 -45 21 -92 24 -105 11 -57 48
-214 81 -340 20 -74 38 -144 40 -155 3 -11 21 -76 40 -145 20 -69 38 -132 40
-140 9 -40 121 -386 178 -550 129 -372 282 -751 448 -1111 63 -137 280 -571
333 -667 25 -45 50 -90 56 -100 272 -493 589 -983 919 -1422 59 -79 254 -327
310 -395 36 -44 75 -91 86 -104 37 -45 184 -214 269 -311 169 -190 524 -554
717 -734 46 -43 107 -99 134 -125 45 -42 142 -128 234 -207 19 -16 39 -34 45
-39 6 -6 56 -48 111 -94 55 -46 111 -93 125 -105 88 -75 464 -362 584 -447 27
-19 65 -46 85 -60 117 -83 161 -113 306 -209 88 -59 198 -130 245 -160 47 -29
108 -68 135 -85 59 -38 445 -265 450 -265 2 0 30 -15 62 -34 111 -64 179 -100
448 -235 323 -163 471 -233 725 -341 534 -229 1107 -430 1655 -581 184 -51
681 -171 765 -185 14 -3 66 -13 115 -24 85 -18 164 -33 230 -45 17 -3 41 -7
55 -9 14 -3 68 -12 120 -20 52 -9 106 -18 120 -21 34 -6 363 -53 425 -60 28
-3 66 -8 85 -11 19 -3 55 -7 80 -9 25 -2 70 -7 100 -10 30 -4 78 -8 105 -10
28 -2 73 -7 100 -9 28 -3 86 -8 130 -11 44 -3 100 -8 125 -10 346 -32 1142
-38 1600 -11 153 9 269 17 305 21 22 2 76 7 120 10 44 4 91 8 105 10 14 2 52
7 85 10 79 7 143 14 235 25 41 6 91 12 110 14 19 3 58 8 85 11 60 8 352 53
380 59 11 2 40 7 65 11 25 4 54 9 65 11 37 7 130 24 160 29 17 3 37 8 45 10 8
2 30 7 49 10 54 9 310 64 371 80 30 8 66 16 80 18 90 17 569 147 815 222 194
59 621 204 715 242 8 4 17 7 20 8 6 2 51 20 95 38 17 6 32 12 35 13 3 0 19 6
35 13 17 7 71 28 120 48 424 168 886 386 1380 653 192 103 703 406 730 433 13
13 12 12 -140 -75 -251 -145 -393 -221 -650 -348 -315 -155 -512 -245 -745
-338 -41 -16 -110 -44 -154 -62 -206 -83 -794 -286 -916 -315 -8 -2 -80 -23
-160 -45 -211 -60 -558 -146 -710 -176 -14 -3 -81 -17 -150 -30 -69 -14 -134
-28 -145 -30 -36 -7 -379 -63 -425 -69 -25 -3 -56 -8 -70 -10 -14 -2 -44 -7
-67 -10 -24 -3 -62 -7 -85 -10 -24 -3 -56 -8 -73 -11 -23 -4 -26 -3 -15 5 8 6
24 11 35 11 11 0 27 5 35 11 12 8 11 9 -5 5 -11 -3 -44 -8 -74 -11 -30 -4 -61
-8 -70 -10 -9 -1 -45 -6 -81 -9 -36 -4 -76 -8 -90 -10 -14 -3 -56 -7 -95 -11
-38 -3 -83 -8 -100 -10 -16 -3 -64 -7 -105 -10 -41 -3 -100 -7 -130 -10 -391
-33 -951 -38 -1330 -10 -25 1 -88 6 -140 9 -181 13 -306 23 -360 31 -14 2 -50
7 -80 10 -30 3 -66 8 -80 10 -14 2 -92 13 -175 25 -187 26 -192 27 -290 45
-44 8 -96 17 -115 20 -31 5 -262 50 -315 61 -11 2 -31 6 -45 9 -45 9 -63 13
-180 40 -63 14 -125 28 -136 31 -12 2 -100 24 -195 48 -1193 302 -2365 796
-3419 1440 -178 108 -228 140 -247 156 -7 5 -15 10 -18 10 -9 0 -318 209 -464
313 -368 263 -750 566 -1031 816 -47 42 -90 81 -96 86 -144 126 -658 632 -769
755 -22 25 -67 74 -100 110 -33 36 -89 99 -125 139 -36 40 -70 79 -75 85 -6 6
-44 52 -85 101 -41 50 -79 95 -85 101 -5 6 -26 30 -45 54 -19 24 -40 48 -45
54 -23 25 -199 250 -298 382 -171 228 -389 543 -552 799 -17 28 -53 82 -78
122 -26 40 -47 75 -47 78 0 3 -17 34 -39 68 -46 74 -176 298 -221 382 -18 33
-45 83 -61 112 -83 148 -293 578 -377 768 -22 50 -49 110 -60 135 -160 350
-419 1065 -532 1465 -12 44 -33 114 -45 155 -82 269 -223 891 -281 1235 -1 11
-7 47 -13 80 -6 33 -13 80 -16 105 -3 25 -8 52 -10 60 -3 8 -7 32 -10 54 -8
66 -15 119 -25 186 -5 36 -14 106 -20 155 -6 50 -12 108 -15 130 -6 53 -24
236 -30 305 -2 30 -7 89 -10 130 -4 41 -8 95 -10 120 -5 63 -16 284 -21 420
-4 130 -4 731 1 830 5 125 17 355 20 395 9 133 17 234 20 265 2 19 7 71 10
115 4 44 9 89 11 100 2 11 6 51 9 90 3 38 8 77 10 85 2 8 7 42 10 75 3 33 8
71 10 85 9 62 15 109 21 155 3 28 7 57 9 65 2 8 7 35 10 60 3 25 10 68 15 95
5 28 11 69 14 93 3 24 7 46 10 50 2 4 7 29 10 56 4 28 18 104 31 170 13 67 26
132 29 146 2 14 13 66 25 115 11 50 22 104 25 122 4 18 11 44 16 59 6 15 8 29
6 32 -3 2 -1 12 3 21 5 9 11 30 14 46 3 17 12 59 22 95 9 36 19 73 21 83 2 10
6 27 9 37 3 10 8 28 10 41 9 48 139 494 190 650 108 335 292 835 371 1007 13
29 24 56 24 60 0 5 9 26 19 48 10 21 45 98 76 169 119 268 353 743 445 900 10
17 31 55 47 85 38 70 75 136 130 228 24 41 43 76 43 78 0 3 8 17 18 32 11 15
56 88 102 162 140 228 359 555 530 791 143 196 450 589 556 709 12 14 43 50
69 80 263 305 617 677 856 895 36 33 110 101 165 151 108 100 314 280 409 359
33 28 62 52 65 55 32 35 578 465 704 555 15 11 47 34 70 51 109 82 497 352
543 379 42 24 138 91 141 98 2 4 8 7 13 7 6 0 42 21 82 48 40 26 81 52 92 59
11 6 70 42 130 80 61 37 118 73 127 78 10 6 66 39 125 74 60 35 133 78 163 94
30 17 67 38 82 49 14 10 28 18 31 18 3 0 63 32 133 72 141 78 694 359 840 426
176 81 321 145 484 214 91 38 179 75 195 83 37 16 249 100 330 130 268 100
371 137 590 210 209 70 474 154 535 170 67 18 303 85 306 88 3 2 -125 4 -129
1z"/>
<path d="M11798 17821 c-75 -155 -191 -320 -357 -511 -64 -74 -322 -335 -414
-418 -263 -240 -688 -575 -1122 -886 -312 -223 -436 -308 -1230 -844 -436
-295 -738 -504 -895 -621 -41 -31 -79 -59 -85 -63 -5 -4 -82 -65 -170 -134
-153 -122 -186 -150 -295 -256 -45 -44 -150 -164 -150 -173 0 -2 23 5 50 15
28 10 53 18 56 19 2 0 39 11 82 25 141 46 437 140 447 142 13 3 283 90 368
118 37 13 67 20 67 15 0 -9 -302 -432 -331 -465 -11 -11 -19 -23 -19 -27 0 -4
-7 -15 -15 -24 -8 -10 -92 -121 -186 -248 -144 -191 -429 -557 -449 -575 -3
-3 -43 -50 -90 -105 -95 -111 -92 -108 -174 -194 -32 -33 -55 -61 -49 -61 33
0 528 174 808 283 421 165 800 359 951 486 17 14 54 46 84 71 72 61 163 177
198 253 47 102 65 191 77 382 15 227 38 333 104 470 80 165 250 357 450 508
161 121 174 135 336 337 109 136 207 253 343 410 113 130 114 130 177 205 33
38 65 75 70 81 29 31 272 310 330 379 28 32 57 66 65 75 8 9 51 58 95 110 44
52 82 97 85 100 3 3 51 59 105 125 55 66 102 122 105 125 13 12 205 256 295
375 167 220 289 419 324 527 25 77 4 61 -41 -31z"/>
<path d="M21154 2064 c-18 -14 -18 -15 4 -4 12 6 22 13 22 15 0 8 -5 6 -26
-11z"/>
</g>
</svg>
